Coordinates
version=1
nRows=15
nColumns=63
inDegrees=yes

Units are S.I. units (second, meters, Newtons, ...)
If the header above contains a line with 'inDegrees', this indicates whether rotational values are in degrees (yes) or radians (no).

endheader
time	pelvis_tilt	pelvis_list	pelvis_rotation	pelvis_tx	pelvis_ty	pelvis_tz	hip_flexion_r	hip_adduction_r	hip_rotation_r	knee_angle_r	knee_angle_r_beta	ankle_angle_r	subtalar_angle_r	mtp_angle_r	hip_flexion_l	hip_adduction_l	hip_rotation_l	knee_angle_l	knee_angle_l_beta	ankle_angle_l	subtalar_angle_l	mtp_angle_l	L5_S1_Flex_Ext	L5_S1_Lat_Bending	L5_S1_axial_rotation	L4_L5_Flex_Ext	L4_L5_Lat_Bending	L4_L5_axial_rotation	L3_L4_Flex_Ext	L3_L4_Lat_Bending	L3_L4_axial_rotation	L2_L3_Flex_Ext	L2_L3_Lat_Bending	L2_L3_axial_rotation	L1_L2_Flex_Ext	L1_L2_Lat_Bending	L1_L2_axial_rotation	L1_T12_Flex_Ext	L1_T12_Lat_Bending	L1_T12_axial_rotation	Abs_r3	Abs_r2	Abs_r1	Abs_t1	Abs_t2	neck_flexion	neck_bending	neck_rotation	arm_flex_r	arm_add_r	arm_rot_r	elbow_flex_r	pro_sup_r	wrist_flex_r	wrist_dev_r	arm_flex_l	arm_add_l	arm_rot_l	elbow_flex_l	pro_sup_l	wrist_flex_l	wrist_dev_l
0.542373	1.157843	-7.313597	88.797620	0.349139	0.965796	0.486467	-0.618484	0.863050	22.430162	1.967082	0.034332	17.983768	-15.365363	0.000000	1.616461	-4.558842	-0.060392	1.192006	0.020804	29.018630	11.647184	0.000000	0.012687	0.157984	-0.497508	0.023561	0.210119	-0.528602	0.020843	0.384122	-0.528602	0.014500	0.384122	-0.435319	0.011781	0.322161	-0.404225	0.007249	0.244717	-0.373131	0.090620	1.787147	-2.766988	0.000000	0.000000	20.890653	-3.375869	-5.315401	11.432566	-10.756920	58.236011	44.777685	29.761814	21.630099	9.148426	14.291702	-7.655698	52.770074	46.307868	52.044442	12.391890	4.952242
0.559322	1.204282	-7.294795	88.945111	0.349068	0.965794	0.486390	-0.664537	0.915352	22.392991	1.957337	0.034162	18.015641	-15.533476	0.000000	1.630255	-4.612106	-0.054498	1.201423	0.020969	29.074267	11.746493	0.000000	0.011647	0.160183	-0.538563	0.021629	0.213043	-0.572223	0.019134	0.389468	-0.572223	0.013311	0.389468	-0.471243	0.010815	0.326645	-0.437583	0.006655	0.248123	-0.403922	0.083192	1.812019	-2.995327	0.000000	0.000000	20.867005	-3.374346	-5.368153	11.741743	-10.713583	58.795935	44.516871	31.044844	21.969746	8.354358	14.265467	-7.678310	52.439414	46.321159	52.268996	12.750737	5.044153
0.576271	1.256702	-7.277605	89.093685	0.348998	0.965787	0.486301	-0.714487	0.974144	22.326553	1.940213	0.033863	18.055989	-15.666759	0.000000	1.643764	-4.671211	-0.092895	1.209633	0.021112	29.143518	11.940501	0.000000	0.009361	0.163383	-0.576085	0.017385	0.217299	-0.612090	0.015379	0.397248	-0.612090	0.010699	0.397248	-0.504074	0.008693	0.333170	-0.468069	0.005349	0.253080	-0.432064	0.066865	1.848216	-3.204012	0.000000	0.000000	20.880739	-3.341708	-5.370550	12.127482	-10.724090	59.592119	44.289109	32.376663	22.299037	7.350977	14.214227	-7.694932	52.030969	46.363625	52.694170	13.112838	5.186833
0.593220	1.320578	-7.272616	89.260437	0.348898	0.965765	0.486198	-0.757589	1.046138	22.225913	1.918356	0.033482	18.100317	-15.774956	0.000000	1.669248	-4.740189	-0.020682	1.215234	0.021210	29.196086	12.043481	0.000000	0.007774	0.168357	-0.608672	0.014437	0.223915	-0.646714	0.012771	0.409343	-0.646714	0.008885	0.409343	-0.532588	0.007219	0.343314	-0.494546	0.004442	0.260785	-0.456504	0.055527	1.904488	-3.385250	0.000000	0.000000	20.919582	-3.292487	-5.345030	12.550401	-10.776544	60.533641	44.081515	33.666263	22.681627	6.296762	14.174606	-7.710875	51.695990	46.413691	53.128162	13.443580	5.346064
0.610169	1.389847	-7.279319	89.411919	0.348788	0.965740	0.486098	-0.788813	1.124508	22.164369	1.895756	0.033087	18.118893	-15.912115	0.000000	1.697812	-4.811482	0.169026	1.213175	0.021174	29.214640	11.990293	0.000000	0.006593	0.174680	-0.627763	0.012244	0.232324	-0.666998	0.010832	0.424717	-0.666998	0.007535	0.424717	-0.549293	0.006122	0.356207	-0.510057	0.003767	0.270579	-0.470822	0.047094	1.976014	-3.491430	0.000000	0.000000	20.978135	-3.235894	-5.305467	12.972868	-10.864765	61.526956	43.903425	35.005744	23.080602	5.201314	14.137102	-7.710077	51.416241	46.446389	53.600831	13.747882	5.509002
0.627119	1.466138	-7.292235	89.532126	0.348667	0.965731	0.486015	-0.812678	1.209648	22.153743	1.869863	0.032635	18.107545	-16.062966	0.000000	1.721989	-4.887818	0.385619	1.207191	0.021069	29.204072	11.876480	0.000000	0.005160	0.182785	-0.628392	0.009583	0.243104	-0.667667	0.008478	0.444423	-0.667667	0.005898	0.444423	-0.549843	0.004792	0.372735	-0.510569	0.002949	0.283133	-0.471294	0.036860	2.067697	-3.494930	0.000000	0.000000	21.045106	-3.179808	-5.265433	13.345626	-10.983625	62.451833	43.773458	36.269950	23.463474	4.229146	14.124978	-7.685765	51.281921	46.440622	54.000368	13.983337	5.642031
0.644068	1.546869	-7.312059	89.602330	0.348549	0.965744	0.485951	-0.824081	1.298085	22.197343	1.844829	0.032198	18.065152	-16.192360	0.000000	1.738377	-4.966586	0.643481	1.197212	0.020895	29.154334	11.649643	0.000000	0.004323	0.192397	-0.608568	0.008028	0.255887	-0.646603	0.007102	0.467793	-0.646603	0.004941	0.467793	-0.532497	0.004014	0.392335	-0.494461	0.002470	0.298022	-0.456426	0.030878	2.176429	-3.384670	0.000000	0.000000	21.095736	-3.122849	-5.227970	13.641430	-11.125551	63.264605	43.711211	37.195578	23.765019	3.511972	14.138127	-7.635149	51.317682	46.383180	54.282141	14.143870	5.696437
0.661017	1.629234	-7.333976	89.614069	0.348443	0.965792	0.485917	-0.826761	1.386876	22.328982	1.820101	0.031767	17.951954	-16.348014	0.000000	1.739186	-5.043883	1.001309	1.179440	0.020585	29.048518	11.219418	0.000000	0.003458	0.202959	-0.569899	0.006422	0.269935	-0.605518	0.005682	0.493474	-0.605518	0.003953	0.493474	-0.498662	0.003211	0.413874	-0.463043	0.001976	0.314383	-0.427424	0.024703	2.295911	-3.169608	0.000000	0.000000	21.121126	-3.055389	-5.189741	13.857959	-11.280357	63.957591	43.712527	37.617891	23.961875	3.089840	14.197311	-7.572107	51.588323	46.277211	54.393555	14.204556	5.621799
0.677966	1.708173	-7.356397	89.579601	0.348344	0.965884	0.485907	-0.811345	1.469986	22.330807	1.823172	0.031820	17.870979	-16.213163	0.000000	1.726440	-5.116977	1.361030	1.156032	0.020177	28.905143	10.745490	0.000000	0.002465	0.213436	-0.519877	0.004577	0.283870	-0.552369	0.004049	0.518948	-0.552369	0.002817	0.518948	-0.454892	0.002289	0.435239	-0.422400	0.001408	0.330612	-0.389907	0.017604	2.414431	-2.891397	0.000000	0.000000	21.133476	-2.939994	-5.122367	13.992718	-11.443463	64.535323	43.820490	37.351736	23.849021	3.001647	14.317354	-7.519286	52.151726	46.146354	54.254162	14.101989	5.385663
0.694915	1.784589	-7.377441	89.493328	0.348254	0.966035	0.485902	-0.795587	1.547370	22.391676	1.820105	0.031767	17.676833	-16.120986	0.000000	1.699025	-5.184656	1.741889	1.129131	0.019707	28.727766	10.185456	0.000000	0.001296	0.223955	-0.462076	0.002406	0.297861	-0.490956	0.002129	0.544525	-0.490956	0.001481	0.544525	-0.404317	0.001203	0.456690	-0.375437	0.000740	0.346907	-0.346557	0.009255	2.533428	-2.569931	0.000000	0.000000	21.107848	-2.800790	-5.029425	14.069375	-11.586871	65.015051	43.927326	36.439468	23.671707	3.255856	14.477060	-7.461224	52.876953	45.951122	54.076177	13.974250	5.000523
0.711864	1.849080	-7.401070	89.326191	0.348230	0.966248	0.485893	-0.764747	1.609531	22.365233	1.831419	0.031964	17.469626	-15.808430	0.000000	1.656959	-5.239405	2.049653	1.099059	0.019182	28.527586	9.631171	0.000000	0.000504	0.232958	-0.393330	0.000935	0.309834	-0.417914	0.000827	0.566414	-0.417914	0.000576	0.566414	-0.344164	0.000468	0.475048	-0.319581	0.000288	0.360852	-0.294998	0.003598	2.635267	-2.187586	0.000000	0.000000	21.057517	-2.627129	-4.921823	14.095447	-11.704687	65.419688	44.038195	34.814271	23.287541	3.856477	14.681190	-7.411333	53.752909	45.693667	53.868314	13.840391	4.502294
0.728814	1.900143	-7.428178	89.121837	0.348232	0.966531	0.485881	-0.723637	1.655993	22.290380	1.850661	0.032300	17.221478	-15.420487	0.000000	1.612109	-5.280038	2.291732	1.067749	0.018636	28.310503	9.136293	0.000000	0.000104	0.239778	-0.319967	0.000192	0.318905	-0.339965	0.000170	0.582997	-0.339965	0.000118	0.582997	-0.279971	0.000096	0.488956	-0.259973	0.000059	0.371417	-0.239975	0.000740	2.712421	-1.779562	0.000000	0.000000	20.983122	-2.421615	-4.828153	14.046354	-11.767700	65.634228	44.111981	32.622532	22.703012	4.809854	14.978445	-7.371372	54.936105	45.366433	53.422915	13.663482	3.886620
0.745763	1.934076	-7.464124	88.848391	0.348299	0.966883	0.485852	-0.665205	1.681461	22.190580	1.876015	0.032743	16.965390	-14.934192	0.000000	1.564229	-5.302261	2.459930	1.033333	0.018035	28.080330	8.652227	0.000000	0.001191	0.243986	-0.236299	0.002212	0.324501	-0.251068	0.001957	0.593227	-0.251068	0.001361	0.593227	-0.206762	0.001106	0.497536	-0.191993	0.000681	0.377934	-0.177224	0.008509	2.760017	-1.314224	0.000000	0.000000	20.890702	-2.191597	-4.770777	13.940440	-11.781636	65.736897	44.134383	29.845707	21.912628	6.022202	15.330188	-7.330262	56.289008	44.965236	52.903384	13.451833	3.271477
0.762712	1.948228	-7.501868	88.506792	0.348442	0.967321	0.485796	-0.599118	1.684336	22.183596	1.902337	0.033202	16.671120	-14.521211	0.000000	1.506335	-5.304304	2.510350	0.995182	0.017369	27.852983	8.234667	0.000000	0.003044	0.244809	-0.135788	0.005653	0.325595	-0.144274	0.005001	0.595228	-0.144274	0.003479	0.595228	-0.118814	0.002826	0.499214	-0.110327	0.001739	0.379208	-0.101841	0.021742	2.769323	-0.755210	0.000000	0.000000	20.763232	-1.974467	-4.850314	13.720061	-11.717080	65.513826	44.087958	26.839540	20.919379	7.463733	15.780388	-7.259395	57.999049	44.468501	52.119973	13.149296	2.617987
0.779661	1.947639	-7.539678	88.150554	0.348593	0.967858	0.485710	-0.531899	1.668917	22.177807	1.927254	0.033637	16.380471	-14.114040	0.000000	1.449192	-5.289348	2.507736	0.958538	0.016730	27.607046	7.848053	0.000000	0.005826	0.242982	-0.032735	0.010819	0.323166	-0.034781	0.009571	0.590786	-0.034781	0.006658	0.590786	-0.028643	0.005410	0.495488	-0.026597	0.003329	0.376379	-0.024551	0.041612	2.748658	-0.182062	0.000000	0.000000	20.613335	-1.768107	-5.026445	13.434666	-11.597552	65.125818	43.995023	23.439533	19.658229	9.113752	16.258902	-7.157210	59.841366	43.869260	51.202692	12.805665	2.011553
